<svg width="1068" height="577" viewBox="0 0 1068 577" class="keymap" xmlns="http://www.w3.org/2000/svg" xmlns:xlink="http://www.w3.org/1999/xlink">
<defs>/* start glyphs */
<svg id="mdi:apple-keyboard-caps">
<svg xmlns="http://www.w3.org/2000/svg" id="mdi-apple-keyboard-caps" viewBox="0 0 24 24"><path d="M15,14V8H17.17L12,2.83L6.83,8H9V14H15M12,0L22,10H17V16H7V10H2L12,0M7,18H17V24H7V18M15,20H9V22H15V20Z" /></svg>
</svg>
<svg id="mdi:apple-keyboard-command">
<svg xmlns="http://www.w3.org/2000/svg" id="mdi-apple-keyboard-command" viewBox="0 0 24 24"><path d="M6,2A4,4 0 0,1 10,6V8H14V6A4,4 0 0,1 18,2A4,4 0 0,1 22,6A4,4 0 0,1 18,10H16V14H18A4,4 0 0,1 22,18A4,4 0 0,1 18,22A4,4 0 0,1 14,18V16H10V18A4,4 0 0,1 6,22A4,4 0 0,1 2,18A4,4 0 0,1 6,14H8V10H6A4,4 0 0,1 2,6A4,4 0 0,1 6,2M16,18A2,2 0 0,0 18,20A2,2 0 0,0 20,18A2,2 0 0,0 18,16H16V18M14,10H10V14H14V10M6,16A2,2 0 0,0 4,18A2,2 0 0,0 6,20A2,2 0 0,0 8,18V16H6M8,6A2,2 0 0,0 6,4A2,2 0 0,0 4,6A2,2 0 0,0 6,8H8V6M18,8A2,2 0 0,0 20,6A2,2 0 0,0 18,4A2,2 0 0,0 16,6V8H18Z" /></svg>
</svg>
<svg id="mdi:apple-keyboard-control">
<svg xmlns="http://www.w3.org/2000/svg" id="mdi-apple-keyboard-control" viewBox="0 0 24 24"><path d="M19.78,11.78L18.36,13.19L12,6.83L5.64,13.19L4.22,11.78L12,4L19.78,11.78Z" /></svg>
</svg>
<svg id="mdi:apple-keyboard-option">
<svg xmlns="http://www.w3.org/2000/svg" id="mdi-apple-keyboard-option" viewBox="0 0 24 24"><path d="M3,4H9.11L16.15,18H21V20H14.88L7.84,6H3V4M14,4H21V6H14V4Z" /></svg>
</svg>
<svg id="mdi:apple-keyboard-shift">
<svg xmlns="http://www.w3.org/2000/svg" id="mdi-apple-keyboard-shift" viewBox="0 0 24 24"><path d="M15,18V12H17.17L12,6.83L6.83,12H9V18H15M12,4L22,14H17V20H7V14H2L12,4Z" /></svg>
</svg>
<svg id="mdi:arrow-collapse-left">
<svg xmlns="http://www.w3.org/2000/svg" id="mdi-arrow-collapse-left" viewBox="0 0 24 24"><path d="M11.92,19.92L4,12L11.92,4.08L13.33,5.5L7.83,11H22V13H7.83L13.34,18.5L11.92,19.92M4,12V2H2V22H4V12Z" /></svg>
</svg>
<svg id="mdi:arrow-collapse-right">
<svg xmlns="http://www.w3.org/2000/svg" id="mdi-arrow-collapse-right" viewBox="0 0 24 24"><path d="M12.08,4.08L20,12L12.08,19.92L10.67,18.5L16.17,13H2V11H16.17L10.67,5.5L12.08,4.08M20,12V22H22V2H20V12Z" /></svg>
</svg>
<svg id="mdi:arrow-down-bold">
<svg xmlns="http://www.w3.org/2000/svg" id="mdi-arrow-down-bold" viewBox="0 0 24 24"><path d="M9,4H15V12H19.84L12,19.84L4.16,12H9V4Z" /></svg>
</svg>
<svg id="mdi:arrow-down-left-bold">
<svg xmlns="http://www.w3.org/2000/svg" id="mdi-arrow-down-left-bold" viewBox="0 0 24 24"><path d="M21 3V7H13.5C11.57 7 10 8.57 10 10.5V13H14L8 20L2 13H6V10.5C6 6.36 9.36 3 13.5 3H21Z" /></svg>
</svg>
<svg id="mdi:arrow-left-bold">
<svg xmlns="http://www.w3.org/2000/svg" id="mdi-arrow-left-bold" viewBox="0 0 24 24"><path d="M20,9V15H12V19.84L4.16,12L12,4.16V9H20Z" /></svg>
</svg>
<svg id="mdi:arrow-right-bold">
<svg xmlns="http://www.w3.org/2000/svg" id="mdi-arrow-right-bold" viewBox="0 0 24 24"><path d="M4,15V9H12V4.16L19.84,12L12,19.84V15H4Z" /></svg>
</svg>
<svg id="mdi:arrow-up-bold">
<svg xmlns="http://www.w3.org/2000/svg" id="mdi-arrow-up-bold" viewBox="0 0 24 24"><path d="M15,20H9V12H4.16L12,4.16L19.84,12H15V20Z" /></svg>
</svg>
<svg id="mdi:backspace">
<svg xmlns="http://www.w3.org/2000/svg" id="mdi-backspace" viewBox="0 0 24 24"><path d="M22,3H7C6.31,3 5.77,3.35 5.41,3.88L0,12L5.41,20.11C5.77,20.64 6.31,21 7,21H22A2,2 0 0,0 24,19V5A2,2 0 0,0 22,3M19,15.59L17.59,17L14,13.41L10.41,17L9,15.59L12.59,12L9,8.41L10.41,7L14,10.59L17.59,7L19,8.41L15.41,12" /></svg>
</svg>
<svg id="mdi:backspace-reverse-outline">
<svg xmlns="http://www.w3.org/2000/svg" id="mdi-backspace-reverse-outline" viewBox="0 0 24 24"><path d="M5,15.59L6.41,17L10,13.41L13.59,17L15,15.59L11.41,12L15,8.41L13.59,7L10,10.59L6.41,7L5,8.41L8.59,12L5,15.59M2,3A2,2 0 0,0 0,5V19A2,2 0 0,0 2,21H17C17.69,21 18.23,20.64 18.59,20.11L24,12L18.59,3.88C18.23,3.35 17.69,3 17,3H2M2,5H17L21.72,12L17,19H2V5Z" /></svg>
</svg>
<svg id="mdi:bluetooth">
<svg xmlns="http://www.w3.org/2000/svg" id="mdi-bluetooth" viewBox="0 0 24 24"><path d="M14.88,16.29L13,18.17V14.41M13,5.83L14.88,7.71L13,9.58M17.71,7.71L12,2H11V9.58L6.41,5L5,6.41L10.59,12L5,17.58L6.41,19L11,14.41V22H12L17.71,16.29L13.41,12L17.71,7.71Z" /></svg>
</svg>
<svg id="mdi:bluetooth-off">
<svg xmlns="http://www.w3.org/2000/svg" id="mdi-bluetooth-off" viewBox="0 0 24 24"><path d="M13,5.83L14.88,7.71L13.28,9.31L14.69,10.72L17.71,7.7L12,2H11V7.03L13,9.03M5.41,4L4,5.41L10.59,12L5,17.59L6.41,19L11,14.41V22H12L16.29,17.71L18.59,20L20,18.59M13,18.17V14.41L14.88,16.29" /></svg>
</svg>
<svg id="mdi:card-search-outline">
<svg xmlns="http://www.w3.org/2000/svg" id="mdi-card-search-outline" viewBox="0 0 24 24"><path d="M11.5 16C12.37 16 13.19 15.74 13.88 15.3L16.32 17.74L17.74 16.32L15.3 13.89C15.74 13.19 16 12.38 16 11.5C16 9 14 7 11.5 7S7 9 7 11.5 9 16 11.5 16M11.5 9C12.88 9 14 10.12 14 11.5S12.88 14 11.5 14 9 12.88 9 11.5 10.12 9 11.5 9M20 4H4C2.9 4 2 4.9 2 6V18C2 19.1 2.9 20 4 20H20C21.1 20 22 19.1 22 18V6C22 4.9 21.1 4 20 4M20 18H4V6H20V18Z" /></svg>
</svg>
<svg id="mdi:chevron-down">
<svg xmlns="http://www.w3.org/2000/svg" id="mdi-chevron-down" viewBox="0 0 24 24"><path d="M7.41,8.58L12,13.17L16.59,8.58L18,10L12,16L6,10L7.41,8.58Z" /></svg>
</svg>
<svg id="mdi:content-copy">
<svg xmlns="http://www.w3.org/2000/svg" id="mdi-content-copy" viewBox="0 0 24 24"><path d="M19,21H8V7H19M19,5H8A2,2 0 0,0 6,7V21A2,2 0 0,0 8,23H19A2,2 0 0,0 21,21V7A2,2 0 0,0 19,5M16,1H4A2,2 0 0,0 2,3V17H4V3H16V1Z" /></svg>
</svg>
<svg id="mdi:content-cut">
<svg xmlns="http://www.w3.org/2000/svg" id="mdi-content-cut" viewBox="0 0 24 24"><path d="M19,3L13,9L15,11L22,4V3M12,12.5A0.5,0.5 0 0,1 11.5,12A0.5,0.5 0 0,1 12,11.5A0.5,0.5 0 0,1 12.5,12A0.5,0.5 0 0,1 12,12.5M6,20A2,2 0 0,1 4,18C4,16.89 4.9,16 6,16A2,2 0 0,1 8,18C8,19.11 7.1,20 6,20M6,8A2,2 0 0,1 4,6C4,4.89 4.9,4 6,4A2,2 0 0,1 8,6C8,7.11 7.1,8 6,8M9.64,7.64C9.87,7.14 10,6.59 10,6A4,4 0 0,0 6,2A4,4 0 0,0 2,6A4,4 0 0,0 6,10C6.59,10 7.14,9.87 7.64,9.64L10,12L7.64,14.36C7.14,14.13 6.59,14 6,14A4,4 0 0,0 2,18A4,4 0 0,0 6,22A4,4 0 0,0 10,18C10,17.41 9.87,16.86 9.64,16.36L12,14L19,21H22V20L9.64,7.64Z" /></svg>
</svg>
<svg id="mdi:content-paste">
<svg xmlns="http://www.w3.org/2000/svg" id="mdi-content-paste" viewBox="0 0 24 24"><path d="M19,20H5V4H7V7H17V4H19M12,2A1,1 0 0,1 13,3A1,1 0 0,1 12,4A1,1 0 0,1 11,3A1,1 0 0,1 12,2M19,2H14.82C14.4,0.84 13.3,0 12,0C10.7,0 9.6,0.84 9.18,2H5A2,2 0 0,0 3,4V20A2,2 0 0,0 5,22H19A2,2 0 0,0 21,20V4A2,2 0 0,0 19,2Z" /></svg>
</svg>
<svg id="mdi:keyboard-return">
<svg xmlns="http://www.w3.org/2000/svg" id="mdi-keyboard-return" viewBox="0 0 24 24"><path d="M19,7V11H5.83L9.41,7.41L8,6L2,12L8,18L9.41,16.58L5.83,13H21V7H19Z" /></svg>
</svg>
<svg id="mdi:keyboard-space">
<svg xmlns="http://www.w3.org/2000/svg" id="mdi-keyboard-space" viewBox="0 0 24 24"><path d="M3 15H5V19H19V15H21V19C21 20.1 20.1 21 19 21H5C3.9 21 3 20.1 3 19V15Z" /></svg>
</svg>
<svg id="mdi:keyboard-tab">
<svg xmlns="http://www.w3.org/2000/svg" id="mdi-keyboard-tab" viewBox="0 0 24 24"><path d="M20,18H22V6H20M11.59,7.41L15.17,11H1V13H15.17L11.59,16.58L13,18L19,12L13,6L11.59,7.41Z" /></svg>
</svg>
<svg id="mdi:keyboard-tab-reverse">
<svg xmlns="http://www.w3.org/2000/svg" id="mdi-keyboard-tab-reverse" viewBox="0 0 24 24"><path d="M4 6H2V18H4M11 6L5 12L11 18L12.41 16.58L8.83 13H23V11H8.83L12.41 7.41L11 6Z" /></svg>
</svg>
<svg id="mdi:magnify">
<svg xmlns="http://www.w3.org/2000/svg" id="mdi-magnify" viewBox="0 0 24 24"><path d="M9.5,3A6.5,6.5 0 0,1 16,9.5C16,11.11 15.41,12.59 14.44,13.73L14.71,14H15.5L20.5,19L19,20.5L14,15.5V14.71L13.73,14.44C12.59,15.41 11.11,16 9.5,16A6.5,6.5 0 0,1 3,9.5A6.5,6.5 0 0,1 9.5,3M9.5,5C7,5 5,7 5,9.5C5,12 7,14 9.5,14C12,14 14,12 14,9.5C14,7 12,5 9.5,5Z" /></svg>
</svg>
<svg id="mdi:mouse-scroll-wheel">
<svg xmlns="http://www.w3.org/2000/svg" id="mdi-mouse-scroll-wheel" viewBox="0 0 24 24"><path d="M11 1.07C7.05 1.56 4 4.92 4 9H11V7.73C10.4 7.39 10 6.74 10 6V4C10 3.26 10.4 2.61 11 2.27V1.07M13 9V7.73C13.6 7.39 14 6.74 14 6V4C14 3.26 13.6 2.61 13 2.27V1.07C16.94 1.56 20 4.92 20 9H13M4 15C4 17.12 4.84 19.16 6.34 20.66C7.84 22.16 9.88 23 12 23C14.12 23 16.16 22.16 17.66 20.66C19.16 19.16 20 17.12 20 15V11H4V15M13 6V4C13 3.45 12.55 3 12 3C11.45 3 11 3.45 11 4V6C11 6.55 11.45 7 12 7C12.55 7 13 6.55 13 6Z" /></svg>
</svg>
<svg id="mdi:open-in-app">
<svg xmlns="http://www.w3.org/2000/svg" id="mdi-open-in-app" viewBox="0 0 24 24"><path d="M12,10L8,14H11V20H13V14H16M19,4H5C3.89,4 3,4.9 3,6V18A2,2 0 0,0 5,20H9V18H5V8H19V18H15V20H19A2,2 0 0,0 21,18V6A2,2 0 0,0 19,4Z" /></svg>
</svg>
<svg id="mdi:page-next-outline">
<svg xmlns="http://www.w3.org/2000/svg" id="mdi-page-next-outline" viewBox="0 0 24 24"><path d="M22,3H5A2,2 0 0,0 3,5V9H5V5H22V19H5V15H3V19A2,2 0 0,0 5,21H22A2,2 0 0,0 24,19V5A2,2 0 0,0 22,3M7,15V13H0V11H7V9L11,12L7,15M20,13H13V11H20V13M20,9H13V7H20V9M17,17H13V15H17V17Z" /></svg>
</svg>
<svg id="mdi:page-previous-outline">
<svg xmlns="http://www.w3.org/2000/svg" id="mdi-page-previous-outline" viewBox="0 0 24 24"><path d="M2,3H19A2,2 0 0,1 21,5V9H19V5H2V19H19V15H21V19A2,2 0 0,1 19,21H2A2,2 0 0,1 0,19V5A2,2 0 0,1 2,3M17,15V13H24V11H17V9L13,12L17,15M4,13H11V11H4V13M4,9H11V7H4V9M4,17H8V15H4V17Z" /></svg>
</svg>
<svg id="mdi:play-pause">
<svg xmlns="http://www.w3.org/2000/svg" id="mdi-play-pause" viewBox="0 0 24 24"><path d="M3,5V19L11,12M13,19H16V5H13M18,5V19H21V5" /></svg>
</svg>
<svg id="mdi:redo-variant">
<svg xmlns="http://www.w3.org/2000/svg" id="mdi-redo-variant" viewBox="0 0 24 24"><path d="M10.5,7A6.5,6.5 0 0,0 4,13.5A6.5,6.5 0 0,0 10.5,20H14V18H10.5C8,18 6,16 6,13.5C6,11 8,9 10.5,9H16.17L13.09,12.09L14.5,13.5L20,8L14.5,2.5L13.08,3.91L16.17,7H10.5M18,18H16V20H18V18Z" /></svg>
</svg>
<svg id="mdi:select-all">
<svg xmlns="http://www.w3.org/2000/svg" id="mdi-select-all" viewBox="0 0 24 24"><path d="M9,9H15V15H9M7,17H17V7H7M15,5H17V3H15M15,21H17V19H15M19,17H21V15H19M19,9H21V7H19M19,21A2,2 0 0,0 21,19H19M19,13H21V11H19M11,21H13V19H11M9,3H7V5H9M3,17H5V15H3M5,21V19H3A2,2 0 0,0 5,21M19,3V5H21A2,2 0 0,0 19,3M13,3H11V5H13M3,9H5V7H3M7,21H9V19H7M3,13H5V11H3M3,5H5V3A2,2 0 0,0 3,5Z" /></svg>
</svg>
<svg id="mdi:skip-next">
<svg xmlns="http://www.w3.org/2000/svg" id="mdi-skip-next" viewBox="0 0 24 24"><path d="M16,18H18V6H16M6,18L14.5,12L6,6V18Z" /></svg>
</svg>
<svg id="mdi:skip-previous">
<svg xmlns="http://www.w3.org/2000/svg" id="mdi-skip-previous" viewBox="0 0 24 24"><path d="M6,18V6H8V18H6M9.5,12L18,6V18L9.5,12Z" /></svg>
</svg>
<svg id="mdi:undo-variant">
<svg xmlns="http://www.w3.org/2000/svg" id="mdi-undo-variant" viewBox="0 0 24 24"><path d="M13.5,7A6.5,6.5 0 0,1 20,13.5A6.5,6.5 0 0,1 13.5,20H10V18H13.5C16,18 18,16 18,13.5C18,11 16,9 13.5,9H7.83L10.91,12.09L9.5,13.5L4,8L9.5,2.5L10.92,3.91L7.83,7H13.5M6,18H8V20H6V18Z" /></svg>
</svg>
<svg id="mdi:usb">
<svg xmlns="http://www.w3.org/2000/svg" id="mdi-usb" viewBox="0 0 24 24"><path d="M15,7V11H16V13H13V5H15L12,1L9,5H11V13H8V10.93C8.7,10.56 9.2,9.85 9.2,9C9.2,7.78 8.21,6.8 7,6.8C5.78,6.8 4.8,7.78 4.8,9C4.8,9.85 5.3,10.56 6,10.93V13A2,2 0 0,0 8,15H11V18.05C10.29,18.41 9.8,19.15 9.8,20A2.2,2.2 0 0,0 12,22.2A2.2,2.2 0 0,0 14.2,20C14.2,19.15 13.71,18.41 13,18.05V15H16A2,2 0 0,0 18,13V11H19V7H15Z" /></svg>
</svg>
<svg id="mdi:volume-high">
<svg xmlns="http://www.w3.org/2000/svg" id="mdi-volume-high" viewBox="0 0 24 24"><path d="M14,3.23V5.29C16.89,6.15 19,8.83 19,12C19,15.17 16.89,17.84 14,18.7V20.77C18,19.86 21,16.28 21,12C21,7.72 18,4.14 14,3.23M16.5,12C16.5,10.23 15.5,8.71 14,7.97V16C15.5,15.29 16.5,13.76 16.5,12M3,9V15H7L12,20V4L7,9H3Z" /></svg>
</svg>
<svg id="mdi:volume-low">
<svg xmlns="http://www.w3.org/2000/svg" id="mdi-volume-low" viewBox="0 0 24 24"><path d="M7,9V15H11L16,20V4L11,9H7Z" /></svg>
</svg>
<svg id="mdi:volume-off">
<svg xmlns="http://www.w3.org/2000/svg" id="mdi-volume-off" viewBox="0 0 24 24"><path d="M12,4L9.91,6.09L12,8.18M4.27,3L3,4.27L7.73,9H3V15H7L12,20V13.27L16.25,17.53C15.58,18.04 14.83,18.46 14,18.7V20.77C15.38,20.45 16.63,19.82 17.68,18.96L19.73,21L21,19.73L12,10.73M19,12C19,12.94 18.8,13.82 18.46,14.64L19.97,16.15C20.62,14.91 21,13.5 21,12C21,7.72 18,4.14 14,3.23V5.29C16.89,6.15 19,8.83 19,12M16.5,12C16.5,10.23 15.5,8.71 14,7.97V10.18L16.45,12.63C16.5,12.43 16.5,12.21 16.5,12Z" /></svg>
</svg>
<svg id="moergo">
<svg xml:space="preserve" viewBox="0 0 512 172">
<path d="m60.09 80.108-.073-4.3-2.778-.046a288.998 288.998 0 0 1-3.245-.066l-.466-.02.07-9.061.07-9.062 1.777-.871c.978-.479 2.75-1.116 3.936-1.416l2.158-.546 1.938.098 1.937.098.741.549c.959.71 1.857 2.04 2.192 3.247l.266.957.002 12.37.001 12.369h18.786V75.94l-2.977-.004-2.976-.004-.335-.212-.334-.212.07-8.97.07-8.97 1.058-.598c.582-.329 1.951-.91 3.043-1.29l1.984-.691 2.513-.128 2.514-.127 1.188.615 1.189.615.578.87c.317.478.705 1.466.862 2.196l.284 1.326v24.052h18.785v-8.45l-3.24-.075-3.242-.074-.163-10.451-.163-10.451-.412-1.755c-.227-.965-.712-2.347-1.08-3.07l-.666-1.317-1.367-1.23-1.367-1.228-1.227-.55c-.676-.303-2.002-.717-2.948-.921l-1.72-.37-2.249-.004c-5.224-.006-8.928 1.154-15.272 4.78l-1.118.638-.767-.926c-.421-.51-1.437-1.388-2.257-1.952l-1.491-1.026-1.784-.654-1.784-.654-2.679-.142-2.678-.143-1.82.334c-2.344.43-5.837 1.628-7.714 2.644-.811.44-1.633.8-1.825.8h-.35v-3.176H34.749v8.731h6.62l-.068 11.012-.07 11.011-3.24-.045-3.242-.045v8.759h25.414zm307.77 35.396v-4.359l-3.903-.073-3.902-.073.035-4.101.035-4.101.462-1.853c.255-1.018.814-2.551 1.243-3.406l.78-1.555 1.203-1.287 1.203-1.286 1.393-.682 1.394-.681 2.079-.37c1.143-.205 2.766-.376 3.605-.38l1.527-.01-.071-5.754-.072-5.755-1.984.057c-2.584.073-4.265.478-6.216 1.496l-1.586.828-1.752 1.72-1.751 1.72-1.028 2.175-1.028 2.176-.331.007-.33.007V80.44h-17.994v8.466h6.88v22.225h-7.408v4.189c0 2.304.08 4.269.177 4.366l.176.176h27.164zm90.354-36.19-2.91.152-2.91.152-1.978.56c-1.087.308-2.884 1.032-3.992 1.609l-2.015 1.048-1.74 1.435-1.74 1.435-1.213 1.7c-2.198 3.08-3.398 6.55-3.74 10.81l-.178 2.2.3 2.459.301 2.459.63 1.98.628 1.98 1.085 1.827 1.085 1.826 1.653 1.634c4.082 4.035 8.828 5.94 15.046 6.043l2.016.033 2.327-.406 2.327-.406 1.743-.69c.959-.38 2.576-1.226 3.595-1.879l1.852-1.187 1.772-1.802 1.773-1.801 1.18-2.463 1.181-2.463.471-1.852.472-1.852.008-3.704.008-3.705-.35-1.587c-.52-2.36-1.549-4.81-2.85-6.788l-1.16-1.76-1.59-1.473c-2.927-2.71-6.842-4.546-11.12-5.216zm-3.213 9.327h3.301l1.28.546a8.732 8.732 0 0 1 .803.395 7.563 7.563 0 0 1 .96.64 6.99 6.99 0 0 1 1.385 1.453 7.746 7.746 0 0 1 .482.76 8.846 8.846 0 0 1 .419.847 10.375 10.375 0 0 1 .356.937 12.694 12.694 0 0 1 .297 1.029 16.376 16.376 0 0 1 .24 1.126 20.138 20.138 0 0 1 .181 1.224l.278 2.288-.27 2.375a31.867 31.867 0 0 1-.136 1.031 21.21 21.21 0 0 1-.162.925 15.296 15.296 0 0 1-.193.834 11.573 11.573 0 0 1-.23.76 9.573 9.573 0 0 1-.429 1.032 8.657 8.657 0 0 1-.542.952 10.276 10.276 0 0 1-.433.616l-.95 1.255-1.447.73-1.448.73-1.455.119a9.456 9.456 0 0 1-.638.03c-.11.002-.222.002-.332.002a11.503 11.503 0 0 1-.937-.045 5.823 5.823 0 0 1-.258-.03 3.177 3.177 0 0 1-.215-.039h-.001a8.305 8.305 0 0 1-1.082-.314 7.362 7.362 0 0 1-.746-.327 6.734 6.734 0 0 1-1.526-1.076 6.94 6.94 0 0 1-.74-.815 7.83 7.83 0 0 1-.494-.709 9.102 9.102 0 0 1-.443-.793 10.732 10.732 0 0 1-.392-.88 13.103 13.103 0 0 1-.343-.966 15.588 15.588 0 0 1-.202-.692l-.41-1.53.004-2.91.003-2.91.273-1.42a11.718 11.718 0 0 1 .274-1.062 18.563 18.563 0 0 1 .707-1.932l.706-1.573 1.046-.895 1.045-.895 1.207-.411zM132.263 11.697c-.034.046-2.106 11.691-4.604 25.88-2.498 14.188-5.55 31.51-6.78 38.493l-2.236 12.697.188.168c.104.093 14.892 2.745 32.864 5.894l32.676 5.726 2.514.825c1.382.453 3.96 1.517 5.727 2.363l3.214 1.539 2.607 1.766c5.134 3.477 9.088 7.32 12.861 12.496l1.6 2.196.291-.117c.16-.064 5.886-3.578 12.726-7.809 6.84-4.23 13.297-8.202 14.35-8.826 1.054-.623 1.917-1.227 1.919-1.342.006-.405-3.296-5.123-5.728-8.184l-2.463-3.1-3.378-3.386c-6.352-6.369-13.625-11.71-21.146-15.528-1.333-.677-2.54-1.375-2.685-1.552l-.261-.32 3.932-22.225c2.163-12.224 3.937-22.464 3.942-22.755l.008-.529-3.373-.595c-3.298-.583-37.653-6.632-64.983-11.443-7.545-1.328-13.747-2.378-13.782-2.332Zm36.233 30.314 2.35.444a24.764 24.764 0 0 1 2.44.592 23.266 23.266 0 0 1 2.777 1.03 22.678 22.678 0 0 1 2.19 1.123l1.554.907 1.945 1.848 1.945 1.848 1.024 1.626a20.183 20.183 0 0 1 .697 1.224 29.839 29.839 0 0 1 .695 1.405 21.308 21.308 0 0 1 .367.846l.737 1.85.392 2.251.391 2.252-.133 3.704-.133 3.704-.574 1.977a12.6 12.6 0 0 1-.137.439 19.653 19.653 0 0 1-.364 1.012 30.436 30.436 0 0 1-.905 2.107c-.076.158-.151.308-.224.448l-1.055 2.028-1.468 1.623a23.44 23.44 0 0 1-1.64 1.64 22.31 22.31 0 0 1-2.387 1.874 21.434 21.434 0 0 1-3.978 2.124 21.751 21.751 0 0 1-2.154.743l-1.97.568-3.837.108-3.836.108-2.25-.5a24.587 24.587 0 0 1-2.104-.565 23.215 23.215 0 0 1-1.993-.737 22.27 22.27 0 0 1-2.473-1.238 21.003 21.003 0 0 1-2.243-1.512 20.136 20.136 0 0 1-2.452-2.253 19.478 19.478 0 0 1-4.082-6.862 20.427 20.427 0 0 1-.215-.655l-.541-1.755-.293-2.61-.293-2.61.16-2.116a28.936 28.936 0 0 1 .326-2.643 25.64 25.64 0 0 1 .56-2.485 22.955 22.955 0 0 1 .793-2.32 20.977 20.977 0 0 1 .654-1.452 19.989 19.989 0 0 1 1.166-2.032 19.022 19.022 0 0 1 1.893-2.424 18.685 18.685 0 0 1 2.268-2.086 19.407 19.407 0 0 1 1.94-1.334 20.624 20.624 0 0 1 2.14-1.13 22.523 22.523 0 0 1 2.333-.917c.27-.09.544-.176.82-.257l2.298-.68 3.44-.14zm.595 31.233 1.124-.524.866-1.012.866-1.012.458-1.28c.252-.704.584-2.287.738-3.518l.278-2.238-.18-1.73c-.1-.953-.402-2.45-.67-3.33l-.49-1.599-.96-1.122-.962-1.123-1.029-.525c-.566-.288-1.554-.597-2.195-.684l-1.166-.16-1.387.332-1.387.333-1.039.939c-1.296 1.171-1.992 2.515-2.47 4.773l-.373 1.757-.005 2.147c-.002 1.18.114 2.788.258 3.572l.262 1.425.862 1.709.863 1.709 1.058.741 1.058.742 1.19.228a7.103 7.103 0 0 0 4.432-.55zm232.503 6.57-2.513.004-2.514.004-1.587.465c-.873.256-2.382.88-3.352 1.388l-1.765.924-1.686 1.632c-2.91 2.818-4.732 6.224-5.647 10.554l-.406 1.927v6.614l.393 1.866c1.764 8.345 7.056 13.98 14.045 14.951l1.93.269 1.799-.288 1.8-.287 1.868-.78 1.869-.779 2.313-1.738 2.314-1.737.3.186.303.186-.182 3.099c-.418 7.15-2.43 9.735-8.29 10.646l-1.955.304-2.253-.326-2.254-.326-1.762-.663c-.97-.365-2.146-.89-2.614-1.166l-.85-.501-2.436 3.359c-1.34 1.847-2.68 3.633-2.979 3.968l-.544.61.39.269c.215.148 1.224.677 2.244 1.176l1.855.905 2.575.654c4.317 1.095 9.784 1.447 14.354.924v-.001c3.285-.376 5.177-.9 7.805-2.159l2.249-1.077 1.765-1.792 1.764-1.793.937-1.947c.516-1.072 1.2-2.957 1.52-4.19l.584-2.244.109-16.999.109-17h6.573V80.44h-18.785v4.498h-.381c-.21 0-.987-.58-1.726-1.29l-1.346-1.289-1.575-.84c-.867-.462-2.204-1.034-2.97-1.272zm1.147 9.62h1.273l1.222.418 1.224.416 1.195 1.053 1.196 1.052.806 1.64.805 1.64.297 2.304.296 2.304-.306 2.053-.305 2.053-.624 1.363a6.734 6.734 0 0 1-.145.295 9.744 9.744 0 0 1-.364.643 13.175 13.175 0 0 1-.638.95 8.675 8.675 0 0 1-.212.275c-.07.085-.136.164-.2.235l-.936 1.036-1.26.63-1.26.629-1.87.084-1.87.085-1.089-.402a3.796 3.796 0 0 1-.24-.099 6.041 6.041 0 0 1-.545-.277 9.693 9.693 0 0 1-1.11-.727 5.709 5.709 0 0 1-.23-.187l-1.036-.886-.71-1.306a7.55 7.55 0 0 1-.152-.294 11.46 11.46 0 0 1-.314-.702 17.642 17.642 0 0 1-.554-1.527 9.1 9.1 0 0 1-.097-.34l-.405-1.557v-2.18a24.705 24.705 0 0 1 .04-1.42 17.962 17.962 0 0 1 .126-1.285 14.173 14.173 0 0 1 .133-.795 12.386 12.386 0 0 1 .397-1.488 11.71 11.71 0 0 1 .417-1.061c.053-.117.107-.233.163-.35l.686-1.414 1.224-1.099 1.223-1.1 1.238-.33a9.52 9.52 0 0 1 .581-.128 13.035 13.035 0 0 1 1.65-.196c.099-.004.193-.007.28-.007z"/>
<path d="m323.296 50.381-2.655.46a9467.2 9467.2 0 0 0-16.281 2.872 14178.35 14178.35 0 0 1-18.786 3.313c-22 3.848-44.31 7.839-44.416 7.946-.07.07 1.64 10.158 3.803 22.416 2.162 12.258 3.94 22.517 3.95 22.798l.019.51-3.308 1.756c-12.508 6.64-22.784 15.792-30.58 27.239l-1.882 2.762 9.418 5.8a3575.83 3575.83 0 0 1 11.006 6.797c10.287 6.45 8.87 5.91 10.226 3.904 5.672-8.397 14.596-15.215 24.44-18.673l2.375-.834 33.04-5.812c18.171-3.197 33.084-5.857 33.138-5.91.101-.102-.429-3.156-8.654-49.813zM294.73 79.308l1.827.318c2.551.445 5.214 1.423 7.392 2.717l1.855 1.102 1.857 1.88 1.858 1.879.894 1.515c1.808 3.065 3.069 7.86 3.25 12.358l.09 2.249-14.788.068-14.786.068.138 1.523.138 1.523.613 1.306.614 1.305 1.028.998 1.028.998 1.366.646c.75.355 2.102.797 3.003.983l1.638.338 1.652-.307 1.651-.307 1.393-.705c.766-.387 2.152-1.335 3.08-2.105l1.686-1.4 5.083 1.636 5.083 1.636-1.164 1.6c-.64.88-1.924 2.28-2.853 3.113l-1.689 1.512-2.646 1.293-2.646 1.292-1.72.402c-.945.22-2.404.47-3.24.554-3.182.32-4.375.345-6.814.14l-2.513-.21-2.117-.547-2.116-.547-2.508-1.235-2.508-1.234-2.122-2.142-2.123-2.141-1-1.72c-1.715-2.952-2.566-6.473-2.57-10.626l-.002-2.292.391-2.042c1.536-8.027 7.238-14.325 14.962-16.525l1.978-.563 3.189-.152zm4.867 15.502c0-.666-.935-2.465-1.87-3.597l-.827-1-1.099-.563-1.098-.563-1.852-.12-1.853-.12-1.083.293c-.596.162-1.566.642-2.154 1.069l-1.07.775-.679 1.408c-.372.775-.756 1.736-.85 2.136l-.174.728h14.609z"/>
</svg>

</svg>
</defs>/* end glyphs */
<style>/* inherit to force styles through use tags */
svg path {
    fill: inherit;
}

/* font and background color specifications */
svg.keymap {
    font-family: SFMono-Regular,Consolas,Liberation Mono,Menlo,monospace;
    font-size: 14px;
    font-kerning: normal;
    text-rendering: optimizeLegibility;
    fill: #24292e;
}

/* default key styling */
rect.key {
    fill: #f6f8fa;
}

rect.key, rect.combo {
    stroke: #c9cccf;
    stroke-width: 1;
}

/* default key side styling, only used is draw_key_sides is set */
rect.side {
    filter: brightness(90%);
}

/* color accent for combo boxes */
rect.combo, rect.combo-separate {
    fill: #cdf;
}

/* color accent for held keys */
rect.held, rect.combo.held {
    fill: #fdd;
}

/* color accent for ghost (optional) keys */
rect.ghost, rect.combo.ghost {
    stroke-dasharray: 4, 4;
    stroke-width: 2;
}

text {
    text-anchor: middle;
    dominant-baseline: middle;
}

/* styling for layer labels */
text.label {
    font-weight: bold;
    text-anchor: start;
    stroke: white;
    stroke-width: 4;
    paint-order: stroke;
}

/* styling for optional footer */
text.footer {
    text-anchor: end;
    dominant-baseline: auto;
    stroke: white;
    stroke-width: 4;
    paint-order: stroke;
}

/* styling for combo tap, and key non-tap label text */
text.combo, text.hold, text.shifted, text.left, text.right {
    font-size: 11px;
}

text.hold {
    text-anchor: middle;
    dominant-baseline: auto;
}

text.shifted {
    text-anchor: middle;
    dominant-baseline: hanging;
}

text.left {
    text-anchor: start;
}

text.right {
    text-anchor: end;
}

text.layer-activator {
    text-decoration: underline;
}

/* styling for hold/shifted label text in combo box */
text.combo.hold, text.combo.shifted, text.combo.left, text.combo.right {
    font-size: 8px;
}

/* lighter symbol for transparent keys */
text.trans {
    fill: #7b7e81;
}

/* styling for combo dendrons */
path.combo {
    stroke-width: 1;
    stroke: gray;
    fill: none;
}

/* Start Tabler Icons Cleanup */
/* cannot use height/width with glyphs */
.icon-tabler > path {
    fill: inherit;
    stroke: inherit;
    stroke-width: 2;
}
/* hide tabler's default box */
.icon-tabler > path[stroke="none"][fill="none"] {
    visibility: hidden;
}
/* End Tabler Icons Cleanup */

/* Note, it is dumb, but SVG requires that ampersand be escaped (even in CSS!): &amp; */

/* Nord color scheme */
:root {
    --dark1: #2e3440;
    --dark2: #3b4252;
    --dark3: #434c5e;
    --dark4: #4c566a;
   --light1: #d8dee9;
   --light2: #e5e9f0;
   --light3: #eceff4;
    --blue1: #8fbcbb;
    --blue2: #88c0d0;
    --blue3: #81a1c1;
    --blue4: #5e81ac;
      --red: #bf616a;
   --orange: #d08770;
   --yellow: #ebcb8b;
    --green: #a3be8c;
   --purple: #b48ead;
}

.key rect {
    stroke: var(--light3);
    fill: var(--light3);
}

.tap {
    fill: var(--dark1);
    
}

.info {
    &amp; .shifted, &amp; .hold {
        fill: var(--dark1)
    }
}

text.shifted, text.hold {
  font-size: 8px;
  fill: var(--blue4);
}

text.shifted {
    dominant-baseline: hanging;
    text-anchor: end;
    translate: 22px 2px;
}

text.hold {
  dominant-baseline: ideographic !important;
  text-anchor: middle;
}

.held rect {
    fill: var(--blue1);
}

.trans, .none, .ghost {
    opacity: 0.8!important;
    &amp; .tap {
        fill: var(--blue2) !important;
    }
}

/* Row 2,3,4 (alpha keys) */
.keypos-23, .keypos-24, .keypos-25, .keypos-26, .keypos-27, .keypos-28, .keypos-29, .keypos-30, .keypos-31, .keypos-32,
.keypos-35, .keypos-36, .keypos-37, .keypos-38, .keypos-39, .keypos-40, .keypos-41, .keypos-42, .keypos-43, .keypos-44,
.keypos-47, .keypos-48, .keypos-49, .keypos-50, .keypos-51, .keypos-58, .keypos-59, .keypos-60, .keypos-61, .keypos-62
{
    &amp; rect {
        fill: var(--light1);
    }
}

/* Home keys */
.keypos-35, .keypos-36, .keypos-37, .keypos-38, .keypos-41, .keypos-42, .keypos-43, .keypos-44
{
    &amp; rect {
        stroke: var(--purple);
    }
}

/* Thumb keys: */
.keypos-52, .keypos-53, .keypos-54,     .keypos-55, .keypos-56, .keypos-57,
.keypos-69, .keypos-70, .keypos-71,     .keypos-72, .keypos-73, .keypos-74
{
   /* TODO? */
}

/* Highlight WASD */
.layer-gaming {
    &amp; .keypos-25 rect {
        stroke: var(--purple);
    }
    &amp; .keypos-35 rect {
        stroke: var(--light1);
    }
}

.layer-HRM_macOS {
  &amp; rect.HRM_shift {
    fill: var(--yellow);
  }
  &amp; rect.HRM_command {
    fill: var(--green);
  }
  &amp; rect.HRM_option {
    fill: var(--blue1);
  }
  &amp; rect.HRM_control {
    fill: var(--purple);
  }
}

/* Template for RGB filling Template for RGB filling
.layer-HRM_macOS .keypos-3 rect {
  fill: var(--red);
}
*/
</style>
<g transform="translate(30, 0)" class="layer-Gaming">
<text x="0" y="28" class="label" id="Gaming">Gaming</text>
<g transform="translate(0, 56)">
<g transform="translate(28, 56)" class="key keypos-0">
<rect rx="6" ry="6" x="-26" y="-26" width="52" height="52" class="key"/>
<text x="0" y="0" class="key tap">Esc</text>
</g>
<g transform="translate(84, 56)" class="key keypos-1">
<rect rx="6" ry="6" x="-26" y="-26" width="52" height="52" class="key"/>
<text x="0" y="0" class="key tap">P</text>
</g>
<g transform="translate(140, 28)" class="key keypos-2">
<rect rx="6" ry="6" x="-26" y="-26" width="52" height="52" class="key"/>
<text x="0" y="0" class="key tap">O</text>
</g>
<g transform="translate(196, 28)" class="key keypos-3">
<rect rx="6" ry="6" x="-26" y="-26" width="52" height="52" class="key"/>
<text x="0" y="0" class="key tap">N</text>
</g>
<g transform="translate(252, 28)" class="key keypos-4">
<rect rx="6" ry="6" x="-26" y="-26" width="52" height="52" class="key"/>
<use href="#mdi:backspace" xlink:href="#mdi:backspace" x="-7" y="-7" height="14" width="14.0" class="key tap glyph mdi:backspace"/>
</g>
<g transform="translate(756, 28)" class="key keypos-5">
<rect rx="6" ry="6" x="-26" y="-26" width="52" height="52" class="key"/>
<text x="0" y="0" class="key tap">F1</text>
</g>
<g transform="translate(812, 28)" class="key keypos-6">
<rect rx="6" ry="6" x="-26" y="-26" width="52" height="52" class="key"/>
<text x="0" y="0" class="key tap">F2</text>
</g>
<g transform="translate(868, 28)" class="key keypos-7">
<rect rx="6" ry="6" x="-26" y="-26" width="52" height="52" class="key"/>
<text x="0" y="0" class="key tap">F3</text>
</g>
<g transform="translate(924, 56)" class="key keypos-8">
<rect rx="6" ry="6" x="-26" y="-26" width="52" height="52" class="key"/>
<text x="0" y="0" class="key tap">F4</text>
</g>
<g transform="translate(980, 56)" class="key keypos-9">
<rect rx="6" ry="6" x="-26" y="-26" width="52" height="52" class="key"/>
<text x="0" y="0" class="key tap">F5</text>
</g>
<g transform="translate(28, 112)" class="key keypos-10">
<rect rx="6" ry="6" x="-26" y="-26" width="52" height="52" class="key"/>
<text x="0" y="0" class="key tap">M</text>
</g>
<g transform="translate(84, 112)" class="key keypos-11">
<rect rx="6" ry="6" x="-26" y="-26" width="52" height="52" class="key"/>
<text x="0" y="0" class="key tap">6</text>
<text x="0" y="-24" class="key shifted">&amp;</text>
</g>
<g transform="translate(140, 84)" class="key keypos-12">
<rect rx="6" ry="6" x="-26" y="-26" width="52" height="52" class="key"/>
<text x="0" y="0" class="key tap">7</text>
<text x="0" y="-24" class="key shifted">/</text>
</g>
<g transform="translate(196, 84)" class="key keypos-13">
<rect rx="6" ry="6" x="-26" y="-26" width="52" height="52" class="key"/>
<text x="0" y="0" class="key tap">8</text>
<text x="0" y="-24" class="key shifted">(</text>
</g>
<g transform="translate(252, 84)" class="key keypos-14">
<rect rx="6" ry="6" x="-26" y="-26" width="52" height="52" class="key"/>
<text x="0" y="0" class="key tap">9</text>
<text x="0" y="-24" class="key shifted">)</text>
</g>
<g transform="translate(308, 84)" class="key keypos-15">
<rect rx="6" ry="6" x="-26" y="-26" width="52" height="52" class="key"/>
<text x="0" y="0" class="key tap">0</text>
<text x="0" y="-24" class="key shifted">EQ</text>
</g>
<g transform="translate(700, 84)" class="key keypos-16">
<rect rx="6" ry="6" x="-26" y="-26" width="52" height="52" class="key"/>
<text x="0" y="0" class="key tap">F6</text>
</g>
<g transform="translate(756, 84)" class="key keypos-17">
<rect rx="6" ry="6" x="-26" y="-26" width="52" height="52" class="key"/>
<text x="0" y="0" class="key tap">F7</text>
</g>
<g transform="translate(812, 84)" class="key keypos-18">
<rect rx="6" ry="6" x="-26" y="-26" width="52" height="52" class="key"/>
<text x="0" y="0" class="key tap">F8</text>
</g>
<g transform="translate(868, 84)" class="key keypos-19">
<rect rx="6" ry="6" x="-26" y="-26" width="52" height="52" class="key"/>
<text x="0" y="0" class="key tap">F9</text>
</g>
<g transform="translate(924, 112)" class="key keypos-20">
<rect rx="6" ry="6" x="-26" y="-26" width="52" height="52" class="key"/>
<text x="0" y="0" class="key tap">F10</text>
</g>
<g transform="translate(980, 112)" class="key keypos-21">
<rect rx="6" ry="6" x="-26" y="-26" width="52" height="52" class="key"/>
<text x="0" y="0" class="key tap">F11</text>
</g>
<g transform="translate(28, 168)" class="key keypos-22">
<rect rx="6" ry="6" x="-26" y="-26" width="52" height="52" class="key"/>
<text x="0" y="0" class="key tap">I</text>
</g>
<g transform="translate(84, 168)" class="key keypos-23">
<rect rx="6" ry="6" x="-26" y="-26" width="52" height="52" class="key"/>
<text x="0" y="0" class="key tap">1</text>
<text x="0" y="-24" class="key shifted">!</text>
</g>
<g transform="translate(140, 140)" class="key keypos-24">
<rect rx="6" ry="6" x="-26" y="-26" width="52" height="52" class="key"/>
<text x="0" y="0" class="key tap">2</text>
<text x="0" y="-24" class="key shifted">&quot;</text>
</g>
<g transform="translate(196, 140)" class="key keypos-25">
<rect rx="6" ry="6" x="-26" y="-26" width="52" height="52" class="key"/>
<text x="0" y="0" class="key tap">3</text>
<text x="0" y="-24" class="key shifted">#</text>
</g>
<g transform="translate(252, 140)" class="key keypos-26">
<rect rx="6" ry="6" x="-26" y="-26" width="52" height="52" class="key"/>
<text x="0" y="0" class="key tap">4</text>
<text x="0" y="-24" class="key shifted">¤</text>
</g>
<g transform="translate(308, 140)" class="key keypos-27">
<rect rx="6" ry="6" x="-26" y="-26" width="52" height="52" class="key"/>
<text x="0" y="0" class="key tap">5</text>
<text x="0" y="-24" class="key shifted">%</text>
</g>
<g transform="translate(700, 140)" class="key keypos-28">
<rect rx="6" ry="6" x="-26" y="-26" width="52" height="52" class="key"/>
<text x="0" y="0" class="key tap">Y</text>
</g>
<g transform="translate(756, 140)" class="key keypos-29">
<rect rx="6" ry="6" x="-26" y="-26" width="52" height="52" class="key"/>
<text x="0" y="0" class="key tap">U</text>
</g>
<g transform="translate(812, 140)" class="key keypos-30">
<rect rx="6" ry="6" x="-26" y="-26" width="52" height="52" class="key"/>
<text x="0" y="0" class="key tap">I</text>
</g>
<g transform="translate(868, 140)" class="key keypos-31">
<rect rx="6" ry="6" x="-26" y="-26" width="52" height="52" class="key"/>
<text x="0" y="0" class="key tap">O</text>
</g>
<g transform="translate(924, 168)" class="key keypos-32">
<rect rx="6" ry="6" x="-26" y="-26" width="52" height="52" class="key"/>
<text x="0" y="0" class="key tap">P</text>
</g>
<g transform="translate(980, 168)" class="key keypos-33">
<rect rx="6" ry="6" x="-26" y="-26" width="52" height="52" class="key"/>
<text x="0" y="0" class="key tap">F12</text>
</g>
<g transform="translate(28, 224)" class="key keypos-34">
<rect rx="6" ry="6" x="-26" y="-26" width="52" height="52" class="key"/>
<text x="0" y="0" class="key tap">T</text>
</g>
<g transform="translate(84, 224)" class="key keypos-35">
<rect rx="6" ry="6" x="-26" y="-26" width="52" height="52" class="key"/>
<use href="#mdi:keyboard-tab" xlink:href="#mdi:keyboard-tab" x="-7" y="-7" height="14" width="14.0" class="key tap glyph mdi:keyboard-tab"/>
</g>
<g transform="translate(140, 196)" class="key keypos-36">
<rect rx="6" ry="6" x="-26" y="-26" width="52" height="52" class="key"/>
<text x="0" y="0" class="key tap">Q</text>
</g>
<g transform="translate(196, 196)" class="key keypos-37">
<rect rx="6" ry="6" x="-26" y="-26" width="52" height="52" class="key"/>
<text x="0" y="0" class="key tap">W</text>
</g>
<g transform="translate(252, 196)" class="key keypos-38">
<rect rx="6" ry="6" x="-26" y="-26" width="52" height="52" class="key"/>
<text x="0" y="0" class="key tap">E</text>
</g>
<g transform="translate(308, 196)" class="key keypos-39">
<rect rx="6" ry="6" x="-26" y="-26" width="52" height="52" class="key"/>
<text x="0" y="0" class="key tap">R</text>
</g>
<g transform="translate(700, 196)" class="key keypos-40">
<rect rx="6" ry="6" x="-26" y="-26" width="52" height="52" class="key"/>
<text x="0" y="0" class="key tap">H</text>
</g>
<g transform="translate(756, 196)" class="key keypos-41">
<rect rx="6" ry="6" x="-26" y="-26" width="52" height="52" class="key"/>
<text x="0" y="0" class="key tap">J</text>
</g>
<g transform="translate(812, 196)" class="key keypos-42">
<rect rx="6" ry="6" x="-26" y="-26" width="52" height="52" class="key"/>
<text x="0" y="0" class="key tap">K</text>
</g>
<g transform="translate(868, 196)" class="key keypos-43">
<rect rx="6" ry="6" x="-26" y="-26" width="52" height="52" class="key"/>
<text x="0" y="0" class="key tap">L</text>
</g>
<g transform="translate(924, 224)" class="key keypos-44">
<rect rx="6" ry="6" x="-26" y="-26" width="52" height="52" class="key"/>
<text x="0" y="0" class="key tap">Ö</text>
</g>
<g transform="translate(980, 224)" class="key keypos-45">
<rect rx="6" ry="6" x="-26" y="-26" width="52" height="52" class="key"/>
<text x="0" y="0" class="key tap">Ä</text>
</g>
<g transform="translate(28, 280)" class="key keypos-46">
<rect rx="6" ry="6" x="-26" y="-26" width="52" height="52" class="key"/>
<text x="0" y="0" class="key tap">G</text>
</g>
<g transform="translate(84, 280)" class="key keypos-47">
<rect rx="6" ry="6" x="-26" y="-26" width="52" height="52" class="key"/>
<use href="#mdi:apple-keyboard-shift" xlink:href="#mdi:apple-keyboard-shift" x="-7" y="-7" height="14" width="14.0" class="key tap glyph mdi:apple-keyboard-shift"/>
</g>
<g transform="translate(140, 252)" class="key keypos-48">
<rect rx="6" ry="6" x="-26" y="-26" width="52" height="52" class="key"/>
<text x="0" y="0" class="key tap">A</text>
</g>
<g transform="translate(196, 252)" class="key keypos-49">
<rect rx="6" ry="6" x="-26" y="-26" width="52" height="52" class="key"/>
<text x="0" y="0" class="key tap">S</text>
</g>
<g transform="translate(252, 252)" class="key keypos-50">
<rect rx="6" ry="6" x="-26" y="-26" width="52" height="52" class="key"/>
<text x="0" y="0" class="key tap">D</text>
</g>
<g transform="translate(308, 252)" class="key keypos-51">
<rect rx="6" ry="6" x="-26" y="-26" width="52" height="52" class="key"/>
<text x="0" y="0" class="key tap">F</text>
</g>
<g transform="translate(371, 312) rotate(30.0)" class="key keypos-52">
<rect rx="6" ry="6" x="-26" y="-26" width="52" height="52" class="key"/>
<use href="#mdi:apple-keyboard-shift" xlink:href="#mdi:apple-keyboard-shift" x="-7" y="-7" height="14" width="14.0" class="key tap glyph mdi:apple-keyboard-shift"/>
</g>
<g transform="translate(420, 350) rotate(45.0)" class="key keypos-53">
<rect rx="6" ry="6" x="-26" y="-26" width="52" height="52" class="key"/>
<use href="#mdi:apple-keyboard-option" xlink:href="#mdi:apple-keyboard-option" x="-7" y="-7" height="14" width="14.0" class="key tap glyph mdi:apple-keyboard-option"/>
</g>
<g transform="translate(458, 399) rotate(60.0)" class="key keypos-54">
<rect rx="6" ry="6" x="-26" y="-26" width="52" height="52" class="key"/>
<text x="0" y="0" class="key tap">V</text>
</g>
<g transform="translate(550, 399) rotate(-60.0)" class="key keypos-55">
<rect rx="6" ry="6" x="-26" y="-26" width="52" height="52" class="key"/>
<text x="0" y="0" class="key tap">Esc</text>
</g>
<g transform="translate(588, 350) rotate(-45.0)" class="key keypos-56">
<rect rx="6" ry="6" x="-26" y="-26" width="52" height="52" class="key"/>
<use href="#mdi:arrow-up-bold" xlink:href="#mdi:arrow-up-bold" x="-7" y="-7" height="14" width="14.0" class="key tap glyph mdi:arrow-up-bold"/>
</g>
<g transform="translate(637, 312) rotate(-30.0)" class="key keypos-57">
<rect rx="6" ry="6" x="-26" y="-26" width="52" height="52" class="key"/>
<use href="#mdi:keyboard-return" xlink:href="#mdi:keyboard-return" x="-7" y="-7" height="14" width="14.0" class="key tap glyph mdi:keyboard-return"/>
</g>
<g transform="translate(700, 252)" class="key keypos-58">
<rect rx="6" ry="6" x="-26" y="-26" width="52" height="52" class="key"/>
<text x="0" y="0" class="key tap">N</text>
</g>
<g transform="translate(756, 252)" class="key keypos-59">
<rect rx="6" ry="6" x="-26" y="-26" width="52" height="52" class="key"/>
<text x="0" y="0" class="key tap">M</text>
</g>
<g transform="translate(812, 252)" class="key keypos-60">
<rect rx="6" ry="6" x="-26" y="-26" width="52" height="52" class="key"/>
<text x="0" y="0" class="key tap">,</text>
<text x="0" y="-24" class="key shifted">;</text>
</g>
<g transform="translate(868, 252)" class="key keypos-61">
<rect rx="6" ry="6" x="-26" y="-26" width="52" height="52" class="key"/>
<text x="0" y="0" class="key tap">.</text>
<text x="0" y="-24" class="key shifted">:</text>
</g>
<g transform="translate(924, 280)" class="key keypos-62">
<rect rx="6" ry="6" x="-26" y="-26" width="52" height="52" class="key"/>
<text x="0" y="0" class="key tap">-</text>
<text x="0" y="-24" class="key shifted">_</text>
</g>
<g transform="translate(980, 280)" class="key keypos-63">
<rect rx="6" ry="6" x="-26" y="-26" width="52" height="52" class="key"/>
<text x="0" y="0" class="key tap">+</text>
<text x="0" y="-24" class="key shifted">?</text>
</g>
<g transform="translate(28, 336)" class="key keypos-64">
<rect rx="6" ry="6" x="-26" y="-26" width="52" height="52" class="key"/>
<text x="0" y="0" class="key tap">B</text>
</g>
<g transform="translate(84, 336)" class="key keypos-65">
<rect rx="6" ry="6" x="-26" y="-26" width="52" height="52" class="key"/>
<use href="#mdi:apple-keyboard-control" xlink:href="#mdi:apple-keyboard-control" x="-7" y="-7" height="14" width="14.0" class="key tap glyph mdi:apple-keyboard-control"/>
</g>
<g transform="translate(140, 308)" class="key keypos-66">
<rect rx="6" ry="6" x="-26" y="-26" width="52" height="52" class="key"/>
<text x="0" y="0" class="key tap">Z</text>
</g>
<g transform="translate(196, 308)" class="key keypos-67">
<rect rx="6" ry="6" x="-26" y="-26" width="52" height="52" class="key"/>
<text x="0" y="0" class="key tap">X</text>
</g>
<g transform="translate(252, 308)" class="key keypos-68">
<rect rx="6" ry="6" x="-26" y="-26" width="52" height="52" class="key"/>
<text x="0" y="0" class="key tap">C</text>
</g>
<g transform="translate(314, 347) rotate(20.0)" class="key keypos-69">
<rect rx="6" ry="6" x="-26" y="-26" width="52" height="52" class="key"/>
<use href="#mdi:keyboard-space" xlink:href="#mdi:keyboard-space" x="-7" y="-7" height="14" width="14.0" class="key tap glyph mdi:keyboard-space"/>
</g>
<g transform="translate(369, 379) rotate(40.0)" class="key keypos-70">
<rect rx="6" ry="6" x="-26" y="-26" width="52" height="52" class="key"/>
<use href="#mdi:apple-keyboard-control" xlink:href="#mdi:apple-keyboard-control" x="-7" y="-7" height="14" width="14.0" class="key tap glyph mdi:apple-keyboard-control"/>
</g>
<g transform="translate(410, 427) rotate(60.0)" class="key keypos-71">
<rect rx="6" ry="6" x="-26" y="-26" width="52" height="52" class="key"/>
<use href="#mdi:keyboard-return" xlink:href="#mdi:keyboard-return" x="-7" y="-7" height="14" width="14.0" class="key tap glyph mdi:keyboard-return"/>
</g>
<g transform="translate(598, 427) rotate(-60.0)" class="key keypos-72">
<rect rx="6" ry="6" x="-26" y="-26" width="52" height="52" class="key"/>
<use href="#mdi:arrow-left-bold" xlink:href="#mdi:arrow-left-bold" x="-7" y="-7" height="14" width="14.0" class="key tap glyph mdi:arrow-left-bold"/>
</g>
<g transform="translate(639, 379) rotate(-40.0)" class="key keypos-73">
<rect rx="6" ry="6" x="-26" y="-26" width="52" height="52" class="key"/>
<use href="#mdi:arrow-down-bold" xlink:href="#mdi:arrow-down-bold" x="-7" y="-7" height="14" width="14.0" class="key tap glyph mdi:arrow-down-bold"/>
</g>
<g transform="translate(694, 347) rotate(-20.0)" class="key keypos-74">
<rect rx="6" ry="6" x="-26" y="-26" width="52" height="52" class="key"/>
<use href="#mdi:arrow-right-bold" xlink:href="#mdi:arrow-right-bold" x="-7" y="-7" height="14" width="14.0" class="key tap glyph mdi:arrow-right-bold"/>
</g>
<g transform="translate(756, 308)" class="key keypos-75">
<rect rx="6" ry="6" x="-26" y="-26" width="52" height="52" class="key"/>
<text x="0" y="0" class="key tap">&lt;</text>
<text x="0" y="-24" class="key shifted">&gt;</text>
</g>
<g transform="translate(812, 308)" class="key keypos-76">
<rect rx="6" ry="6" x="-26" y="-26" width="52" height="52" class="key"/>
<text x="0" y="0" class="key tap">Å</text>
</g>
<g transform="translate(868, 308)" class="key keypos-77">
<rect rx="6" ry="6" x="-26" y="-26" width="52" height="52" class="key"/>
<text x="0" y="0" class="key tap">¨</text>
<text x="0" y="-24" class="key shifted">^</text>
</g>
<g transform="translate(924, 336)" class="key keypos-78">
<rect rx="6" ry="6" x="-26" y="-26" width="52" height="52" class="key"/>
<text x="0" y="0" class="key tap">&#x27;</text>
<text x="0" y="-24" class="key shifted">*</text>
</g>
<g transform="translate(980, 336)" class="key keypos-79">
<rect rx="6" ry="6" x="-26" y="-26" width="52" height="52" class="key"/>
<text x="0" y="0" class="key tap">´</text>
<text x="0" y="-24" class="key shifted">`</text>
</g>
<g class="combo combopos-0">
<rect rx="6" ry="6" x="266" y="267" width="28" height="26" class="combo"/>
<a href="#Gaming">
<text x="280" y="280" class="combo tap layer-activator"><tspan style="font-size: 83%">Gaming</tspan></text>
</a><text x="280" y="291" class="combo hold"><tspan style="font-size: 83%">toggle</tspan></text>
</g>
</g>
</g>
</svg>
